<?xml version="1.0" encoding="UTF-8"?>
<svg version="1.1" viewBox="100 30 500 500" xmlns="http://www.w3.org/2000/svg" xmlns:xlink="http://www.w3.org/1999/xlink">
 <g fill="#1971c2">
  <path d="m548.33 373.33c-10.539 0-18.82-11.348-31.219-30.043-19.785-29.855-46.406-70.012-110.21-54.977l0.003906 0.003906c-0.61328-3.1172-1.4102-6.1914-2.3867-9.2109 42.523-4.3945 59.09-32.148 72.332-55.066 13.809-23.871 22.844-37.371 48.148-37.371 6.4414 0 11.668-5.2266 11.668-11.668s-5.2266-11.668-11.668-11.668c-40 0-55.051 26.043-68.348 49.023-13.719 23.738-25.59 44.227-63.5 44.297-0.85156-1.1289-1.6211-2.332-2.5273-3.3945v0.003907c8.6562-3.4531 16.078-9.4219 21.316-17.129 5.2344-7.7109 8.043-16.812 8.0586-26.133v-23.332c-0.054688-15.23-5.1211-30.02-14.418-42.082l35.941-56.676c2.9219-4.6133 2.2539-10.633-1.6055-14.496l-23.332-23.332c-4.5742-4.457-11.879-4.4102-16.395 0.10547s-4.5625 11.82-0.10547 16.395l16.727 16.727-28.48 44.906c-11.363-7.5273-24.699-11.547-38.332-11.547s-26.969 4.0195-38.332 11.547l-28.477-44.906 16.727-16.727-0.003907 0.003907c4.4609-4.5742 4.4141-11.879-0.10156-16.395s-11.824-4.5625-16.395-0.10547l-23.332 23.332v0.003906c-3.8594 3.8594-4.5273 9.875-1.6094 14.488l35.941 56.676c-9.3008 12.062-14.367 26.852-14.418 42.082v23.332c0.015625 9.3203 2.8242 18.422 8.0586 26.133 5.2383 7.707 12.66 13.676 21.316 17.129-0.91016 1.0625-1.6758 2.2617-2.5273 3.3945-37.91-0.066406-49.781-20.559-63.5-44.297-13.297-22.98-28.348-49.027-68.348-49.027-6.4414 0-11.668 5.2266-11.668 11.668s5.2266 11.668 11.668 11.668c25.305 0 34.34 13.5 48.148 37.371 13.242 22.918 29.809 50.672 72.332 55.066v-0.003907c-0.98047 3.0234-1.7773 6.0977-2.3867 9.2148-63.746-15-90.418 25.129-110.21 54.973-12.395 18.695-20.676 30.043-31.215 30.043-6.4453 0-11.668 5.2266-11.668 11.668s5.2227 11.668 11.668 11.668c23.824 0 37.473-20.574 50.664-40.484 19.773-29.836 38.914-57.594 90.113-43.598 0.55078 5.2734 1.6172 10.48 3.1836 15.543-10.301-2.9492-21.258-2.6523-31.387 0.84766-25.477 9.7773-33.395 40.773-41.062 70.762-10.641 41.648-19.184 66.93-48.18 66.93-6.4414 0-11.668 5.2227-11.668 11.664 0 6.4453 5.2266 11.668 11.668 11.668 49.207 0 61.172-46.836 70.797-84.48 6.4727-25.352 12.59-49.297 26.809-54.754 8.9258-3.418 23-0.03125 41.102 9.6758v-0.003906c-20.867 12.609-33.645 35.184-33.707 59.562 0 37.586 29.395 93.332 70 93.332s70-55.746 70-93.332c-0.066406-24.375-12.844-46.953-33.707-59.559 18.105-9.7109 32.195-13.102 41.102-9.6758 14.219 5.457 20.336 29.406 26.809 54.754 9.625 37.645 21.59 84.48 70.797 84.48 6.4414 0 11.668-5.2227 11.668-11.668 0-6.4414-5.2266-11.664-11.668-11.664-28.996 0-37.539-25.281-48.184-66.926-7.668-29.988-15.586-60.988-41.062-70.762-10.125-3.5-21.086-3.7969-31.387-0.84766 1.5703-5.0625 2.6367-10.27 3.1836-15.543 51.211-14.008 70.336 13.762 90.113 43.598 13.195 19.902 26.848 40.48 50.668 40.48 6.4453 0 11.668-5.2266 11.668-11.668s-5.2227-11.668-11.668-11.668zm-198.33-116.66c19.301 0 35 20.93 35 46.668 0 25.738-15.699 46.668-35 46.668s-35-20.93-35-46.668c0-25.738 15.699-46.668 35-46.668zm-23.332-23.332v-0.003907c-6.1875-0.007812-12.117-2.4688-16.492-6.8398-4.375-4.375-6.8359-10.305-6.8438-16.492v-23.332c0-16.672 8.8945-32.078 23.336-40.414 14.438-8.3398 32.227-8.3398 46.664 0 14.441 8.3359 23.336 23.742 23.336 40.414v23.332c-0.007813 6.1875-2.4688 12.117-6.8438 16.492-4.375 4.3711-10.305 6.832-16.492 6.8398zm23.332 256.67c-22.535 0-46.668-41.086-46.668-70v-0.003906c0-16.672 8.8945-32.078 23.336-40.414 14.438-8.3359 32.227-8.3359 46.664 0 14.441 8.3359 23.336 23.742 23.336 40.414 0 28.914-24.133 70-46.668 70z"/>
 </g>
</svg>
